<svg width="195" height="55" viewBox="0 0 195 55" fill="none" xmlns="http://www.w3.org/2000/svg">
<path d="M104.648 39.6943H92.3203V36.4199H104.648V39.6943ZM71.5352 14.835C76.5994 12.0527 82.799 13.3229 86.5264 17.9062L84.2607 20.0508C81.4269 16.685 76.7982 15.8052 73.042 17.9189C69.2857 20.033 67.3702 24.5959 68.3994 28.9775C69.4288 33.3592 73.1378 36.431 77.3887 36.4219C79.98 36.4275 82.4446 35.2316 84.1377 33.1475H75.8164V29.873H87.1738L87.1426 39.6309H84.0605V37.2891C82.073 38.7671 79.7063 39.5622 77.2803 39.5654C71.5792 39.6058 66.5957 35.4869 65.2295 29.6064C63.8635 23.726 66.471 17.6172 71.5352 14.835ZM60.0254 39.627H47.6973V36.3525H60.0254V39.627ZM121.923 13.5342C125.445 13.1283 128.875 14.8957 130.756 18.085C132.636 21.2741 132.636 25.3245 130.756 28.5137C128.875 31.703 125.445 33.4703 121.923 33.0645H121.445V39.6133H118.363V13.5342H121.445C121.604 13.5163 121.764 13.5163 121.923 13.5342ZM35.0117 36.3203H44.2578V39.5947H31.9297V13.5322H35.0117V36.3203ZM194.98 39.5127H191.899V23.3057L184.795 33.1279L177.691 23.3057V39.5625H174.609V13.5322L184.779 27.7588L194.95 13.5322L194.98 39.5127ZM114.094 39.5615H111.012V13.5312H114.094V39.5615ZM139.302 13.6133C140.913 13.5627 142.47 14.2326 143.595 15.457L141.367 17.3291C140.564 16.4375 139.347 16.1212 138.247 16.5176C137.147 16.9142 136.362 17.9519 136.235 19.1787V19.4414C136.235 20.8819 137.176 21.8476 139.01 21.9785C146.067 22.437 149.303 25.9572 149.303 30.6064V30.9004C148.931 34.6582 146.53 37.8404 143.159 39.0449C139.788 40.2493 136.065 39.2554 133.631 36.5L135.989 34.5684C137.1 35.8327 138.678 36.5153 140.304 36.4346C143.387 36.6072 146.052 34.1663 146.345 30.9004V30.6719C146.345 26.3008 142.307 25.4988 138.809 25.1387C135.573 24.8111 133.246 22.6662 133.246 19.5723V19.4414C133.483 16.0961 136.145 13.5343 139.302 13.6133ZM154.619 26.417C154.496 31.9177 157.532 36.3213 161.354 36.3213L161.368 36.2393C165.205 36.2393 168.241 31.8358 168.241 26.417V13.3203H171.323V26.417C171.323 33.6202 166.885 39.4316 161.43 39.4316C155.975 39.4314 151.537 33.6201 151.537 26.417V13.3203H154.619V26.417ZM98.4785 13.5977C103.585 13.5977 107.724 17.9953 107.725 23.4199C107.725 28.8448 103.585 33.2431 98.4785 33.2432C93.3722 33.2432 89.2324 28.8448 89.2324 23.4199C89.2161 20.798 90.1874 18.278 91.9297 16.4209C93.672 14.5638 96.0408 13.5236 98.5088 13.5322L98.4785 13.5977ZM53.8633 13.5322C58.9693 13.5324 63.1082 17.9299 63.1084 23.3545C63.1084 28.7793 58.9694 33.1776 53.8633 33.1777C48.757 33.1777 44.6172 28.7794 44.6172 23.3545C44.6173 20.7495 45.5914 18.2512 47.3252 16.4092C49.0591 14.5671 51.4111 13.5322 53.8633 13.5322ZM98.4844 16.874C95.0802 16.874 92.3203 19.8063 92.3203 23.4229C92.3712 27.0135 95.1345 29.8912 98.5146 29.873L98.4844 29.9707C101.888 29.9706 104.648 27.0392 104.648 23.4229C104.648 19.8063 101.888 16.8741 98.4844 16.874ZM53.8613 16.8076C50.4571 16.8076 47.6973 19.7399 47.6973 23.3564C47.7144 26.96 50.4693 29.8721 53.8613 29.8721V29.9043C57.2653 29.9042 60.0252 26.9728 60.0254 23.3564C60.0254 19.7399 57.2654 16.8077 53.8613 16.8076ZM127.932 19.7451C126.642 17.5975 124.298 16.4392 121.921 16.7754C121.758 16.7934 121.598 16.8302 121.443 16.8848V16.8076L121.428 16.8896C121.433 16.8878 121.438 16.8866 121.443 16.8848V29.7578H121.921C124.298 30.094 126.642 28.9347 127.932 26.7871C129.221 24.6395 129.221 21.8926 127.932 19.7451ZM143.632 15.4961C143.62 15.4828 143.607 15.4702 143.595 15.457L143.647 15.4141L143.632 15.4961Z" fill="#D5D5D5"/>
<path d="M8.75391 0.714844C13.3836 0.714844 17.1367 4.70254 17.1367 9.62109V36.5508L10.2334 41.8057V54.6084H7.27441V41.8057L0.371094 36.5508V9.62109C0.371094 4.70255 4.1242 0.714858 8.75391 0.714844ZM10.2383 33.2607V37.959L14.1836 34.9463V29.0693L10.2383 33.2607ZM3.33203 34.9619L7.27734 37.9414V33.2598L3.33203 29.0684V34.9619ZM3.39648 24.6826L7.3418 28.874V24.9453L3.39648 20.7539V24.6826ZM10.2383 24.9453V28.874L14.1836 24.6826V20.7539L10.2383 24.9453ZM8.75586 18.002L3.33203 12.2393V16.168L8.75586 22.0615L14.1807 16.2988V12.2393L8.75586 18.002ZM8.75293 3.79102C6.28366 3.81052 4.1346 5.58984 3.51367 8.12891L8.75293 13.6787L13.9922 8.12891C13.348 5.61583 11.2046 3.86804 8.75293 3.85645V3.79102Z" fill="#78CE24"/>
</svg>
